<svg xmlns="http://www.w3.org/2000/svg" viewBox="0 0 204 41" aria-hidden="true" ><path d="M10.25 11c-.43.03-6.05-.99-6.32 4.4-1.08.4-4.507.186-3.84-3.6s3.53-3.834 5.486-4.283 10.717-.815 14.629-.081 5.909 1.874 6.031 5.012-1.646 4.662-4.186 5.512c3.494 1.782 4.472 3.697 3.168 7.772s-8.191 4.931-11.451 4.849l-9.217-.081c-.55-1.32-.89-3.92 3.59-3.85m7.2-15.58-2.1 15.51c9.38 1.56 8.69-6.99 2.55-6.2l.37-3.02c4.657 1.73 8.609-6.909-.81-6.29zm14.34 9.21-1.46.01c-.965-1.974.543-2.911 2.499-2.952s3.586-.285 3.423 1.182l-.332 2.26c2.41-6.539 7.748-2.953 5.02.16-3.53-.45-3.51.59-5.17 2.99l-.8 6.4c-4.016.863-4.464-.564-4.2-2.58zm12.98-.01-1.43.05c-1.14-2.5.97-2.92 2.14-2.99s4.54-.66 3.84 2.21l-1.1 7.31c-.08.53.05.83 1.63.51 1.19 1.05.37 2.89-2.14 3.12s-4.32.02-4.15-2.47c.14-1.55.37-2.97.68-4.54zm1.04-6.8c-.06-1.04.61-1.96 1.47-2.32s3.497-.304 3.38 1.89-1.98 2.26-2.48 2.31-2.33.04-2.37-1.88zm7.62 6.73-1.46.05c-.5-.73-.778-2.799 2.559-2.964s3.503-.066 3.173 2.445c1.421-2.081 3.337-3.139 6.868-2.271 1.27.35 1.889 1.875 1.48 4.01-1.07 6.15-2.07 7.448.83 6.42.91.9.92 2.48-1.57 3.11-2.93.6-5.48.43-4.81-3.41l.99-5.35c.904-3.665-3.789-1.55-3.8-.54l-1.09 8.62c-2.666.118-5.144 1.44-3.987-4.409zm28.1 5.92c-.46 2.63.49 4.98-.88 7.44s-5.335 3.983-9.73 3.157-3.535-5.122-2.015-6.081 1.222-.594 3.238-1.288c-3.473-.388-3.863-4.578-2.383-8.198s6.184-5.12 8.762-2.939c.218-1.361 2.908-1.251 4.248-.421zm-3.48-5.71c-2.338-1.175-5.048 1.204-4.751 4.443s3.272 2.148 3.881 1.617zm-1.03 8.59c-1.38 1.58-3.73 1.62-4.95 2.66-.79.7-.63 2.5 2.08 2.28 2.4-.33 2.91-1.67 2.89-3.27zm9.09-8.76-1.47.02c-.89-1.55.22-2.47.89-2.68s5.47-.88 5.04.89l-.24 1.49c1.18-1.85 1.89-2.78 4.86-2.82s3.589 1.732 3.48 2.55c.93-1.54 2.22-2.91 5.495-2.503s2.611 3.007 2.545 3.999-.893 5.254-1.07 6.384 1.35.4 1.91.34c1.35 1.58-.27 2.67-1.15 2.95s-6.234 1.528-5.3-3.04.89-4.23 1.13-6.51c.12-1.77-2.691-1.347-3.716.404l-1.094 8.546c-4.32 1.06-4.42-1-4.27-2.03l.91-6.65c.31-1.87-2.122-1.981-3.708.068l-1.102 8.652c-4.5.93-4.34-.97-4.28-1.97zm34.01 6c2.11 1.15.73 3.37-1.03 3.97s-8.945 1.846-9.507-2.681.165-7.964 4.297-9.799 8.161.414 7.302 3.388-2.644 3.569-7.222 4.182c-.28 3.9 4.63 1.81 5.28 1.42m-5.14-3.46c3.21-.21 3.81-2.11 3.03-2.85s-2.84-.07-3.05 2.75zm10.63-3h-1.45c-1.42-2.94 2-3.01 3.46-3.03s3.14-.16 2.46 2.91l-1.03 6.72c0 .66.27.76 1.67.48 1.089 1.115.296 2.899-1.79 3.07s-5.151.986-4.43-3.42zm3.55-4.95c-3.364.422-3.232-3.775-.29-4.33s2.808 2.703 2.19 3.4-1 .83-1.82.92zm12.84 9.77c.245.847 1.688 4.457-4.327 5.973s-7.713-5.373-1.193-7.363c-2.92-6.1.61-7.22 1.29-7.46s6.428-1.324 4.43 2.7c-.34 0-3.33-.66-2.19 1.61zm-4.88.12c-4.33 1.26-2.792 4.072-.891 3.374s1.829-1.492 1.396-2.454zm5.18-3.62c1.68-1.14 3.14-2.19 4.45-3.65l.92-6.52c2.7-.66 4.18 1.02 4.01 1.94l-1.27 10.6 2.75-.17c1.36-6.83 7.273-7.477 10.401-5.985s1.54 7.459-5.831 7.495c-.37 1.75 1.34 3.7 6.08.95 2.46 1.36.26 3.5-1.26 4.06s-9.311 2.317-9.43-4.45l-2.97.24-.5 4.28c-1.01.15-4.6.92-4.42-1.75l.33-2.52c-.39-.27-2.43-.92-1.04-2.49l1.4.21.47-3.21c-1.1.77-2.2 1.57-3.41 2.29zm15.63 1.67c.68-.24 4.25-.53 3.09-2.82-1.4-1.04-3.36 1.01-3.15 2.76zm10.45-3.03-1.43.09c-.86-1.81-.21-3.03 3.38-3.06s2.46 1.16 2.14 3.41c1.9-3.92 3.29-3.53 4.22-3.47s2.488 1.494.8 3.71c-1.16.18-2.64-1.4-5.13 2.94l-.83 6.47c-2.26.27-4.87.98-4.13-2.76zm9.21 7.55c1.67-.27 2.037 1.452 1.16 2.2s-2.23.41-2.47-.26-.12-1.57 1.307-1.941zm14.42.13c-.46 1.71 1.51.95 2.08.82.55.62.31 1.38-1.64 1.73s-2.26-.559-2.17-2.12c-1.44 2.24-8.655 4.158-8.28-2.774s5.353-9.422 9.3-7.166l.73-5.08c.17-1.25.82-1.79 2.01-1.25zm-.9-8.35c-2.64-1.12-7.38-.95-7.15 6.03.03 4.98 4.01 4.29 6.16 1.62zm14.71 8.6c.39.26.92 1.07-.72 1.86s-9.625 2.183-8.555-5.98 8.458-6.584 9.395-5.808 1.552 2.73.482 4.47-4.149 1.873-8.052 1.498c-.29 3.92 1.23 5.85 6.46 4.36zm-7.27-5.2c5.31.74 7.34-.42 6.6-2.8-.5-1.84-5.33-1.89-6.53 2.32z" fill="#49AC33"/></svg>
