<?xml version="1.0" encoding="UTF-8"?>
<svg width="72" height="72" viewBox="0 0 72 72" version="1.1" xmlns="http://www.w3.org/2000/svg">
    <rect x="0" y="0" width="72" height="72" fill="#ffffff" rx="15" ry="15" />
    <path d="M29.82 20.73c-3.52.42-11.17-1.02-12.38 8.38-3.81.57-7.49 1.08-7.42-6.16s8.31-9.07 21.19-9.45 29.16.03 29.63 9.81-7.76 9.68-8 10.45c5.23 1.96 7.96 5.5 7.22 11.03s-2.53 12.92-25.7 12.34h-15.61c-1.72-4.08-.2-7.31 6.84-7.25zm5.82 29.02c11.88 1.85 13.43-3.58 13.7-5.23s-.31-6.91-8.81-6.24l.81-5.53c7.53.41 9.11-2.33 9.35-5.8s-2.23-6.24-11-5.9z" fill="#49AC33" />
</svg>
